<svg width="14" height="18" viewBox="0 0 14 18" fill="none" xmlns="http://www.w3.org/2000/svg">
<path d="M0.119263 14.9426V13.5182H1.9141V7.2827C1.9141 6.08585 2.26449 5.01686 2.96528 4.07574C3.66606 3.1346 4.5939 2.5403 5.7488 2.29284V1.71567C5.7488 1.37131 5.87162 1.08624 6.11724 0.860466C6.36288 0.634702 6.65719 0.52182 7.00016 0.52182C7.34313 0.52182 7.63744 0.634702 7.88308 0.860466C8.1287 1.08624 8.25151 1.37131 8.25151 1.71567V2.29284C9.40973 2.5403 10.3427 3.13376 11.0504 4.07324C11.7582 5.01271 12.112 6.08253 12.112 7.2827V13.5182H13.886V14.9426H0.119263ZM7.00266 17.4575C6.54676 17.4575 6.14794 17.2904 5.80622 16.9562C5.4645 16.622 5.29364 16.2203 5.29364 15.751H8.71166C8.71166 16.2226 8.54393 16.6249 8.20847 16.958C7.87301 17.291 7.47108 17.4575 7.00266 17.4575ZM3.33349 13.5182H10.6877V7.2827C10.6877 6.25492 10.3335 5.37992 9.62516 4.6577C8.91683 3.93547 8.04877 3.57436 7.02099 3.57436C5.99321 3.57436 5.12169 3.93547 4.40641 4.6577C3.69113 5.37992 3.33349 6.25492 3.33349 7.2827V13.5182Z" fill="black"/>
</svg>
