<svg width="20" height="20" viewBox="0 0 20 20" fill="none" xmlns="http://www.w3.org/2000/svg">
<path d="M17.1429 6.83333L17.7381 6.2381L15.9286 4.42857V1.52381H15.0952V4.64286L17.1429 6.83333ZM3.95238 15.4286C4.31746 15.4286 4.62698 15.3016 4.88095 15.0476C5.13492 14.7936 5.2619 14.4841 5.2619 14.119C5.2619 13.754 5.13492 13.4444 4.88095 13.1905C4.62698 12.9365 4.31746 12.8095 3.95238 12.8095C3.5873 12.8095 3.27778 12.9365 3.02381 13.1905C2.76984 13.4444 2.64286 13.754 2.64286 14.119C2.64286 14.4841 2.76984 14.7936 3.02381 15.0476C3.27778 15.3016 3.5873 15.4286 3.95238 15.4286ZM11.2857 15.4286C11.6508 15.4286 11.9603 15.3016 12.2143 15.0476C12.4683 14.7936 12.5952 14.4841 12.5952 14.119C12.5952 13.754 12.4683 13.4444 12.2143 13.1905C11.9603 12.9365 11.6508 12.8095 11.2857 12.8095C10.9206 12.8095 10.6111 12.9365 10.3571 13.1905C10.1032 13.4444 9.97619 13.754 9.97619 14.119C9.97619 14.4841 10.1032 14.7936 10.3571 15.0476C10.6111 15.3016 10.9206 15.4286 11.2857 15.4286ZM1.33333 20V17.3571C0.873016 17.0873 0.535714 16.7143 0.321429 16.2381C0.107143 15.7619 0 15.2619 0 14.7381V5.28571C0 4.61905 0.194444 4.05159 0.583333 3.58333C0.972222 3.11508 1.5754 2.74603 2.39286 2.47619C3.21032 2.20635 4.25794 2.03571 5.53571 1.96429C6.81349 1.89286 8.33333 1.90476 10.0952 2C10 2.2381 9.9127 2.47222 9.83333 2.70238C9.75397 2.93254 9.69048 3.1746 9.64286 3.42857C7.24603 3.26984 5.34921 3.30556 3.95238 3.53571C2.55556 3.76587 1.71429 4.14286 1.42857 4.66667H9.54762C9.54762 4.90476 9.56746 5.14286 9.60714 5.38095C9.64682 5.61905 9.69841 5.85714 9.7619 6.09524H1.42857V10.2143H13.8333C13.9921 10.2778 14.2103 10.3333 14.4881 10.381C14.7659 10.4286 15.0159 10.4524 15.2381 10.4524V14.7381C15.2381 15.2619 15.131 15.7619 14.9167 16.2381C14.7024 16.7143 14.3651 17.0873 13.9048 17.3571V20H11.8571V18.0476H3.38095V20H1.33333ZM11.8571 11.6429H1.42857H13.8095H11.8571ZM15.5 9.04762C14.246 9.04762 13.1746 8.60318 12.2857 7.71429C11.3968 6.8254 10.9524 5.75397 10.9524 4.5C10.9524 3.24603 11.3968 2.18254 12.2857 1.30952C13.1746 0.436508 14.246 0 15.5 0C16.7381 0 17.7976 0.440476 18.6786 1.32143C19.5595 2.20238 20 3.2619 20 4.5C20 5.75397 19.5635 6.8254 18.6905 7.71429C17.8175 8.60318 16.754 9.04762 15.5 9.04762ZM3.38095 16.619H11.8571C12.4127 16.619 12.877 16.4048 13.25 15.9762C13.623 15.5476 13.8095 15.0556 13.8095 14.5V11.6429H1.42857V14.5C1.42857 15.0556 1.61508 15.5476 1.9881 15.9762C2.36111 16.4048 2.8254 16.619 3.38095 16.619Z" fill="#676666"/>
</svg>
