<svg width="24" height="24" viewBox="0 0 24 24" fill="none" xmlns="http://www.w3.org/2000/svg">
<path d="M3.5 21C3.1 21 2.75 20.85 2.45 20.55C2.15 20.25 2 19.9 2 19.5V10.225H3.5V19.5H14.8V21H3.5ZM6.525 18C6.125 18 5.77083 17.85 5.4625 17.55C5.15417 17.25 5 16.9 5 16.5V7.225H6.5V16.5H17.825V18H6.525ZM9.5 15C9.1 15 8.75 14.85 8.45 14.55C8.15 14.25 8 13.9 8 13.5V4.5C8 4.1 8.15 3.75 8.45 3.45C8.75 3.15 9.1 3 9.5 3H20.5C20.9 3 21.25 3.15 21.55 3.45C21.85 3.75 22 4.1 22 4.5V13.5C22 13.9 21.85 14.25 21.55 14.55C21.25 14.85 20.9 15 20.5 15H9.5ZM9.5 13.5H20.5V6.05H9.5V13.5Z" fill="#676666"/>
</svg>
