<svg width="16" height="16" viewBox="0 0 16 16" fill="none" xmlns="http://www.w3.org/2000/svg">
<path d="M14.5782 15.6184L9.06913 10.1143C8.65578 10.4652 8.17245 10.7389 7.61913 10.9354C7.0658 11.132 6.4744 11.2302 5.84494 11.2302C4.31946 11.2302 3.02814 10.7011 1.97098 9.64284C0.91383 8.58456 0.385254 7.30769 0.385254 5.81222C0.385254 4.31674 0.914393 3.03987 1.97267 1.98159C3.03093 0.923328 4.31127 0.394196 5.81369 0.394196C7.31611 0.394196 8.59298 0.923328 9.64432 1.98159C10.6956 3.03987 11.2213 4.31779 11.2213 5.81534C11.2213 6.41712 11.1266 6.9933 10.9371 7.54388C10.7476 8.09445 10.4635 8.61113 10.0845 9.09392L15.6144 14.5822L14.5782 15.6184ZM5.82588 9.81086C6.93324 9.81086 7.87275 9.42027 8.64442 8.63909C9.41609 7.85792 9.80192 6.91563 9.80192 5.81222C9.80192 4.7088 9.41584 3.76651 8.64369 2.98534C7.87154 2.20416 6.93227 1.81357 5.82588 1.81357C4.70791 1.81357 3.75821 2.20416 2.97677 2.98534C2.19534 3.76651 1.80463 4.7088 1.80463 5.81222C1.80463 6.91563 2.1951 7.85792 2.97605 8.63909C3.75698 9.42027 4.70692 9.81086 5.82588 9.81086Z" fill="black"/>
</svg>
