<svg width="20" height="20" viewBox="0 0 20 20" fill="none" xmlns="http://www.w3.org/2000/svg">
<path d="M10.0007 18.3346C8.84787 18.3346 7.86523 17.9284 7.05273 17.1159C6.24023 16.3034 5.83398 15.3207 5.83398 14.168C5.83398 13.5013 5.97982 12.8798 6.27148 12.3034C6.56315 11.727 6.97287 11.2374 7.50065 10.8346V4.16797C7.50065 3.47352 7.74371 2.88325 8.22982 2.39714C8.71593 1.91102 9.30621 1.66797 10.0007 1.66797C10.6951 1.66797 11.2854 1.91102 11.7715 2.39714C12.2576 2.88325 12.5007 3.47352 12.5007 4.16797V10.8346C13.0284 11.2374 13.4382 11.727 13.7298 12.3034C14.0215 12.8798 14.1673 13.5013 14.1673 14.168C14.1673 15.3207 13.7611 16.3034 12.9486 17.1159C12.1361 17.9284 11.1534 18.3346 10.0007 18.3346ZM9.16732 9.16797H10.834V8.33463H10.0007V7.5013H10.834V5.83464H10.0007V5.0013H10.834V4.16797C10.834 3.93186 10.7541 3.73394 10.5944 3.57422C10.4347 3.4145 10.2368 3.33464 10.0007 3.33464C9.76454 3.33464 9.56662 3.4145 9.4069 3.57422C9.24718 3.73394 9.16732 3.93186 9.16732 4.16797V9.16797Z" fill="black"/>
</svg>
