<svg width="4" height="14" viewBox="0 0 4 14" fill="none" xmlns="http://www.w3.org/2000/svg">
<path d="M2.00087 13.8363C1.70929 13.8363 1.46047 13.7327 1.2544 13.5256C1.04834 13.3184 0.945312 13.0694 0.945312 12.7785C0.945312 12.4908 1.04876 12.2427 1.25565 12.0343C1.46255 11.8259 1.71127 11.7217 2.00181 11.7217C2.29506 11.7217 2.54389 11.8267 2.74829 12.0366C2.9527 12.2466 3.0549 12.496 3.0549 12.7848C3.0549 13.0737 2.95213 13.3211 2.74658 13.5272C2.54103 13.7333 2.29246 13.8363 2.00087 13.8363ZM2.00087 8.05501C1.70929 8.05501 1.46047 7.95157 1.2544 7.74468C1.04834 7.53778 0.945312 7.28906 0.945312 6.99851C0.945312 6.70526 1.04876 6.45644 1.25565 6.25203C1.46255 6.04763 1.71127 5.94543 2.00181 5.94543C2.29506 5.94543 2.54389 6.0482 2.74829 6.25374C2.9527 6.4593 3.0549 6.70787 3.0549 6.99945C3.0549 7.29103 2.95213 7.53986 2.74658 7.74593C2.54103 7.95199 2.29246 8.05501 2.00087 8.05501ZM2.00087 2.27876C1.70929 2.27876 1.46047 2.17468 1.2544 1.96651C1.04834 1.75836 0.945312 1.50814 0.945312 1.21585C0.945312 0.923541 1.04876 0.674353 1.25565 0.468284C1.46255 0.262215 1.71127 0.15918 2.00181 0.15918C2.29506 0.15918 2.54389 0.263201 2.74829 0.471242C2.9527 0.67927 3.0549 0.929437 3.0549 1.22174C3.0549 1.51405 2.95213 1.76329 2.74658 1.96947C2.54103 2.17567 2.29246 2.27876 2.00087 2.27876Z" fill="black"/>
</svg>
